<svg width="87" height="87" xmlns="http://www.w3.org/2000/svg" xmlns:xlink="http://www.w3.org/1999/xlink" xml:space="preserve" overflow="hidden"><defs><clipPath id="clip0"><rect x="1486" y="545" width="87" height="87"/></clipPath></defs><g clip-path="url(#clip0)" transform="translate(-1486 -545)"><path d="M1528.68 562.853C1526.6 562.853 1524.88 564.575 1524.88 566.659 1524.88 568.744 1526.6 570.466 1528.68 570.466 1530.77 570.466 1532.49 568.744 1532.49 566.659 1532.49 564.575 1530.77 562.853 1528.68 562.853Z" fill="#1C1642"/><path d="M1521.07 585.056C1521.07 587.158 1519.37 588.862 1517.27 588.862 1515.16 588.862 1513.46 587.158 1513.46 585.056 1513.46 582.954 1515.16 581.25 1517.27 581.25 1519.37 581.25 1521.07 582.954 1521.07 585.056Z" fill="#1C1642"/><path d="M1539.47 567.928 1537.2 569.016C1537.02 569.741 1536.66 570.375 1536.3 571.009L1537.11 573.366 1535.3 575.178 1532.94 574.362C1532.31 574.725 1531.68 574.997 1530.95 575.178L1529.86 577.353 1527.32 577.353 1526.24 575.088C1525.51 574.906 1524.88 574.634 1524.24 574.272L1521.89 575.088 1520.07 573.275 1520.89 570.919C1520.53 570.284 1520.26 569.65 1520.07 568.925L1517.81 567.838 1517.81 565.3 1520.07 564.213C1520.26 563.487 1520.53 562.853 1520.89 562.219L1520.17 559.862 1521.98 558.05 1524.33 558.866C1524.97 558.503 1525.6 558.231 1526.33 558.05L1527.42 555.784 1529.95 555.784 1531.04 557.959C1531.77 558.141 1532.4 558.412 1533.03 558.775L1535.39 557.959 1537.2 559.772 1536.39 562.128C1536.75 562.763 1537.02 563.397 1537.2 564.122L1539.47 565.209 1539.47 567.928ZM1528.05 586.325 1525.78 587.412C1525.6 588.138 1525.33 588.772 1524.97 589.406L1525.69 591.763 1523.88 593.575 1521.53 592.759C1520.89 593.122 1520.26 593.394 1519.53 593.575L1518.53 595.75 1516 595.75 1514.91 593.484C1514.18 593.303 1513.55 593.031 1512.92 592.669L1510.56 593.394 1508.75 591.581 1509.56 589.225C1509.2 588.591 1508.93 587.956 1508.75 587.231L1506.48 586.144 1506.48 583.606 1508.75 582.519C1508.93 581.794 1509.2 581.159 1509.56 580.525L1508.75 578.169 1510.56 576.356 1512.92 577.172C1513.55 576.809 1514.18 576.537 1514.91 576.356L1516 574.091 1518.62 574.091 1519.71 576.356C1520.44 576.537 1521.07 576.809 1521.71 577.172L1524.06 576.356 1525.88 578.169 1525.06 580.525C1525.42 581.159 1525.69 581.794 1525.88 582.519L1528.14 583.606 1528.05 586.325 1528.05 586.325ZM1559.41 589.678 1553.15 578.803 1553.15 578.35C1553.52 568.381 1548.44 559.047 1539.83 553.881 1531.22 548.806 1520.62 548.806 1512.01 553.881 1503.4 558.956 1498.32 568.381 1498.69 578.35 1498.69 586.959 1502.58 595.025 1509.38 600.281L1509.38 623.209 1538.02 623.209 1538.02 612.334 1542.46 612.334C1545.36 612.334 1548.08 611.156 1550.07 609.162 1552.07 607.078 1553.15 604.359 1553.15 601.459L1553.15 596.022 1557.14 596.022C1559.5 595.75 1561.58 593.031 1559.41 589.678Z" fill="#1C1642"/></g></svg>