<svg width="87" height="87" xmlns="http://www.w3.org/2000/svg" xmlns:xlink="http://www.w3.org/1999/xlink" xml:space="preserve" overflow="hidden"><defs><clipPath id="clip0"><rect x="1093" y="158" width="87" height="87"/></clipPath></defs><g clip-path="url(#clip0)" transform="translate(-1093 -158)"><path d="M1170.94 177.938 1170.94 222.344 1102.06 222.344 1102.06 177.938 1096.62 177.938 1096.62 228.688 1128.34 228.688C1128.34 230.228 1129.52 231.406 1131.06 231.406L1141.94 231.406C1143.48 231.406 1144.66 230.228 1144.66 228.688L1176.38 228.688 1176.38 177.938 1170.94 177.938Z" fill="#1C1642"/><path d="M1167.31 172.5 1105.69 172.5 1105.69 218.719 1167.31 218.719 1167.31 172.5ZM1111.12 177.938 1134.69 177.938 1134.69 213.281 1111.12 213.281 1111.12 177.938ZM1161.88 213.281 1138.31 213.281 1138.31 177.938 1161.88 177.938 1161.88 213.281Z" fill="#1C1642"/><path d="M1143.75 187 1156.44 187 1156.44 189.719 1143.75 189.719Z" fill="#1C1642"/><path d="M1143.75 192.438 1156.44 192.438 1156.44 195.156 1143.75 195.156Z" fill="#1C1642"/><path d="M1143.75 197.875 1152.54 197.875 1152.54 200.594 1143.75 200.594Z" fill="#1C1642"/></g></svg>