<svg width="87" height="87" xmlns="http://www.w3.org/2000/svg" xmlns:xlink="http://www.w3.org/1999/xlink" xml:space="preserve" overflow="hidden"><defs><clipPath id="clip0"><rect x="1092" y="545" width="87" height="87"/></clipPath></defs><g clip-path="url(#clip0)" transform="translate(-1092 -545)"><path d="M1141.84 569.378C1141.84 572.912 1139.03 575.722 1135.5 575.722 1131.97 575.722 1129.16 572.912 1129.16 569.378 1129.16 565.844 1131.97 563.034 1135.5 563.034 1139.03 563.034 1141.84 565.934 1141.84 569.378" fill="#1C1642"/><path d="M1167.22 573.003C1167.22 576.537 1164.41 579.347 1160.88 579.347 1157.34 579.347 1154.53 576.537 1154.53 573.003 1154.53 569.469 1157.34 566.659 1160.88 566.659 1164.41 566.659 1167.22 569.469 1167.22 573.003" fill="#1C1642"/><path d="M1116.47 573.003C1116.47 576.537 1113.66 579.347 1110.12 579.347 1106.59 579.347 1103.78 576.537 1103.78 573.003 1103.78 569.469 1106.59 566.659 1110.12 566.659 1113.66 566.659 1116.47 569.469 1116.47 573.003" fill="#1C1642"/><path d="M1099.79 613.966C1099.79 600.734 1115.74 590.041 1135.5 590.041 1155.17 590.041 1171.21 600.734 1171.21 613.966L1099.79 613.966Z" fill="#1C1642"/><path d="M1107.95 593.394C1111.76 590.856 1116.2 588.862 1121 587.594L1121 586.597C1121 585.6 1120.55 584.603 1119.91 583.969 1119.64 583.697 1119.01 583.334 1118.19 582.972 1113.21 580.616 1107.32 580.616 1102.24 582.881 1101.33 583.244 1100.61 583.697 1100.25 583.969 1099.7 584.603 1099.25 585.6 1099.25 586.597L1099.25 602.003C1101.33 598.831 1104.23 595.841 1107.95 593.394" fill="#1C1642"/><path d="M1146.38 586.688 1146.38 582.972C1146.38 581.975 1145.92 580.978 1145.29 580.344 1145.02 580.072 1144.38 579.709 1143.57 579.347 1138.58 576.991 1132.69 576.991 1127.62 579.256 1126.71 579.619 1125.98 580.072 1125.62 580.344 1124.9 580.978 1124.53 581.975 1124.53 582.972L1124.53 586.688C1128.07 585.963 1131.69 585.6 1135.41 585.6 1139.12 585.6 1142.84 586.053 1146.38 586.688" fill="#1C1642"/><path d="M1171.75 602.003 1171.75 586.597C1171.75 585.6 1171.3 584.603 1170.66 583.969 1170.39 583.697 1169.76 583.334 1168.94 582.972 1163.96 580.616 1158.07 580.616 1152.99 582.881 1152.08 583.244 1151.36 583.697 1151 583.969 1150.27 584.603 1149.91 585.6 1149.91 586.597L1149.91 587.594C1154.71 588.862 1159.15 590.856 1162.96 593.394 1166.77 595.841 1169.67 598.831 1171.75 602.003" fill="#1C1642"/></g></svg>