<svg width="87" height="87" xmlns="http://www.w3.org/2000/svg" xmlns:xlink="http://www.w3.org/1999/xlink" xml:space="preserve" overflow="hidden"><defs><clipPath id="clip0"><rect x="1482" y="158" width="87" height="87"/></clipPath></defs><g clip-path="url(#clip0)" transform="translate(-1482 -158)"><path d="M1548.16 232.312 1502.84 232.312 1502.84 176.125 1512.81 176.125 1512.81 181.562 1538.19 181.562 1538.19 176.125 1548.16 176.125ZM1525.5 168.875C1527 168.875 1528.22 170.092 1528.22 171.594 1528.22 173.095 1527 174.312 1525.5 174.312 1524 174.312 1522.78 173.095 1522.78 171.594 1522.76 170.117 1523.93 168.9 1525.41 168.875 1525.44 168.874 1525.47 168.874 1525.5 168.875ZM1549.97 170.688 1534.56 170.688 1534.56 168.875C1534.56 166.873 1532.94 165.25 1530.94 165.25L1520.06 165.25C1518.06 165.25 1516.44 166.873 1516.44 168.875L1516.44 170.688 1501.03 170.688C1499.03 170.688 1497.41 172.311 1497.41 174.312L1497.41 234.125C1497.41 236.127 1499.03 237.75 1501.03 237.75L1549.97 237.75C1551.97 237.75 1553.59 236.127 1553.59 234.125L1553.59 174.312C1553.59 172.311 1551.97 170.688 1549.97 170.688Z" fill="#1C1642"/><path d="M1527.31 188.812 1542.72 188.812 1542.72 192.438 1527.31 192.438Z" fill="#1C1642"/><path d="M1527.31 199.688 1542.72 199.688 1542.72 203.312 1527.31 203.312Z" fill="#1C1642"/><path d="M1527.31 210.562 1542.72 210.562 1542.72 214.188 1527.31 214.188Z" fill="#1C1642"/><path d="M1527.31 221.438 1542.72 221.438 1542.72 225.062 1527.31 225.062Z" fill="#1C1642"/><path d="M1508.92 190.444 1510.82 188.547 1513.18 190.903 1519.16 184.922 1521.05 186.819 1513.18 194.697 1508.92 190.444Z" fill="#1C1642"/><path d="M1508.92 201.319 1510.82 199.422 1513.18 201.778 1519.16 195.797 1521.05 197.694 1513.18 205.572 1508.92 201.319Z" fill="#1C1642"/><path d="M1508.92 212.194 1510.82 210.297 1513.18 212.653 1519.16 206.672 1521.05 208.569 1513.18 216.447 1508.92 212.194Z" fill="#1C1642"/><path d="M1508.92 223.069 1510.82 221.172 1513.18 223.528 1519.16 217.547 1521.05 219.444 1513.18 227.322 1508.92 223.069Z" fill="#1C1642"/></g></svg>