<svg width="87" height="87" xmlns="http://www.w3.org/2000/svg" xmlns:xlink="http://www.w3.org/1999/xlink" xml:space="preserve" overflow="hidden"><defs><clipPath id="clip0"><rect x="683" y="545" width="87" height="87"/></clipPath></defs><g clip-path="url(#clip0)" transform="translate(-683 -545)"><path d="M702.031 574.172C704.534 574.172 706.562 572.143 706.562 569.641 706.562 567.138 704.534 565.11 702.031 565.11 699.529 565.11 697.5 567.138 697.5 569.641 697.5 572.143 699.529 574.172 702.031 574.172Z" fill="#1C1642"/><path d="M707.94 584.44C708.331 584.722 708.8 584.874 709.281 584.875L715.625 584.875C716.876 584.875 717.891 583.861 717.891 582.609 717.891 581.358 716.876 580.344 715.625 580.344L710.024 580.344 705.711 577.181C704.769 575.887 703.206 575.195 701.614 575.368 699.27 575.66 697.522 577.673 697.563 580.036L697.563 593.031C697.563 595.534 699.592 597.562 702.095 597.562L706.562 597.562 706.562 597.562 712 597.562 712 609.09C712 610.341 713.014 611.356 714.266 611.356 715.517 611.356 716.531 610.341 716.531 609.09L716.531 595.27C716.531 594.018 715.517 593.004 714.266 593.004L706.562 593.004 706.562 583.416Z" fill="#1C1642"/><path d="M750.969 574.172C753.471 574.172 755.5 572.143 755.5 569.641 755.5 567.138 753.471 565.11 750.969 565.11 748.466 565.11 746.438 567.138 746.438 569.641 746.438 572.143 748.466 574.172 750.969 574.172Z" fill="#1C1642"/><path d="M751.386 575.323C749.794 575.15 748.231 575.841 747.289 577.136L742.976 580.344 737.375 580.344C736.124 580.344 735.109 581.358 735.109 582.609 735.109 583.861 736.124 584.875 737.375 584.875L743.719 584.875C744.2 584.874 744.669 584.722 745.06 584.44L746.438 583.416 746.438 593.031 738.762 593.031C737.51 593.031 736.496 594.046 736.496 595.297L736.496 609.09C736.496 610.341 737.51 611.356 738.762 611.356 740.013 611.356 741.027 610.341 741.027 609.09L741.027 597.562 746.465 597.562 746.465 597.562 750.887 597.562C753.39 597.562 755.418 595.534 755.418 593.031L755.418 579.99C755.461 577.634 753.723 575.623 751.386 575.323Z" fill="#1C1642"/><path d="M741.906 586.688 711.094 586.688C710.093 586.688 709.281 587.499 709.281 588.5 709.281 589.501 710.093 590.312 711.094 590.312L724.688 590.312 724.688 608.438 719.25 608.438 719.25 612.062 733.75 612.062 733.75 608.438 728.312 608.438 728.312 590.312 741.906 590.312C742.907 590.312 743.719 589.501 743.719 588.5 743.719 587.499 742.907 586.688 741.906 586.688Z" fill="#1C1642"/><path d="M708.375 599.375 695.688 599.375 695.688 581.25C695.688 580.249 694.876 579.438 693.875 579.438 692.874 579.438 692.062 580.249 692.062 581.25L692.062 601.188C692.062 602.189 692.874 603 693.875 603L699.312 603 699.312 608.438 695.688 608.438 695.688 612.062 706.562 612.062 706.562 608.438 702.938 608.438 702.938 603 708.375 603C709.376 603 710.188 602.189 710.188 601.188 710.188 600.186 709.376 599.375 708.375 599.375Z" fill="#1C1642"/><path d="M759.125 579.891C758.124 579.891 757.312 580.702 757.312 581.703L757.312 599.375 744.625 599.375C743.624 599.375 742.812 600.186 742.812 601.188 742.812 602.189 743.624 603 744.625 603L750.062 603 750.062 608.438 746.438 608.438 746.438 612.062 757.312 612.062 757.312 608.438 753.688 608.438 753.688 603 759.125 603C760.126 603 760.938 602.189 760.938 601.188L760.938 581.703C760.938 580.702 760.126 579.891 759.125 579.891Z" fill="#1C1642"/></g></svg>